<svg xmlns="http://www.w3.org/2000/svg" width="143" height="27" aria-label="Логотип-надпись Cat Energy." fill="none"><g fill="#111" clip-path="url(#a)"><path d="M1.788 24.438A10.148 10.148 0 0 1 0 18.188V8.924a10.282 10.282 0 0 1 1.676-6.362C2.906 1.11 4.805.442 7.598.442c2.794 0 4.581.669 5.699 1.897a8.008 8.008 0 0 1 1.676 5.469v2.232H9.498V7.473c.044-.76-.07-1.52-.335-2.232a1.608 1.608 0 0 0-1.565-.893c-.782 0-1.34.223-1.564.78a7.203 7.203 0 0 0-.335 2.456v11.943a4.616 4.616 0 0 0 .447 2.344c.223.558.782.781 1.564.781s1.229-.223 1.452-.781a6.511 6.511 0 0 0 .336-2.344v-2.679h5.475v2.233a8.532 8.532 0 0 1-1.676 5.58c-1.118 1.34-3.017 2.01-5.699 2.01-2.682-.112-4.693-.782-5.81-2.233ZM21.565.776h6.37l4.692 25.448h-5.14l-.893-5.358h-3.688l-.894 5.358h-5.251L21.565.776Zm4.582 16.742-1.341-9.934-1.341 9.934h2.682ZM36.538 5.017H32.74V.776h13.297v4.13h-3.8v21.318h-5.698V5.017ZM56.204.776h9.833v2.679h-6.37v8.37h5.14v2.568h-5.14v9.375h6.37v2.567h-9.945V.776h.112Zm12.738 0H71.4l7.263 16.854V.776h2.905v25.448h-2.234L71.959 8.812v17.412h-3.017V.776Zm15.978 0h9.833v2.679h-6.369v8.37h5.14v2.568h-5.14v9.375h6.37v2.567H84.92V.776Zm12.739 0h5.139a8.947 8.947 0 0 1 5.699 1.562c1.229 1.005 1.788 2.79 1.788 5.135 0 3.237-1.006 5.246-3.129 5.915l3.576 12.724h-3.464l-3.352-11.942h-2.794v11.942h-3.575V.776h.112Zm4.916 10.938a4.884 4.884 0 0 0 3.24-.893c.671-.558 1.006-1.674 1.006-3.348a7.196 7.196 0 0 0-.335-2.456 2.842 2.842 0 0 0-1.229-1.34 5.104 5.104 0 0 0-2.459-.446h-1.564v8.371h1.341v.112Zm12.179 12.612a11.281 11.281 0 0 1-1.564-6.473V9.37c-.028-1.617.16-3.231.559-4.8a5.67 5.67 0 0 1 2.123-2.901 7.302 7.302 0 0 1 4.134-1.005c2.347 0 4.023.558 5.028 1.786a8.536 8.536 0 0 1 1.565 5.58v.894h-3.353v-.782a16.405 16.405 0 0 0-.223-2.79 2.232 2.232 0 0 0-.894-1.45 3.455 3.455 0 0 0-2.123-.559 3.356 3.356 0 0 0-2.235.67 2.523 2.523 0 0 0-.894 1.786 20.819 20.819 0 0 0-.223 3.013V18.3a10.133 10.133 0 0 0 .67 4.242c.447.892 1.341 1.227 2.682 1.227a2.707 2.707 0 0 0 2.682-1.339 10.27 10.27 0 0 0 .782-4.465V16.18h-3.241v-2.567h6.481v12.612h-2.234l-.336-2.902a4.555 4.555 0 0 1-4.581 3.237 5.592 5.592 0 0 1-4.805-2.233Zm19.107-7.031L128.386.887h3.352l3.911 12.278L139.448.887h3.352l-5.475 16.408v8.929h-3.352v-8.93h-.112Z"/></g><defs><clipPath id="a"><path fill="#fff" d="M0 .441h142.8V26.56H0z"/></clipPath></defs></svg>