<svg xmlns="http://www.w3.org/2000/svg" width="25" height="28" aria-label="Иконка листа." fill="none"><path fill="#fff" d="M24.775.767c-.1-.45-.479-.767-.91-.767h-.006C18.92.033 6.912.916 2.064 8.38-.454 12.258-.67 17.293 1.42 23.345c.016.047.05.079.07.122C.745 25.44.456 26.753.448 26.79c-.108.54.215 1.072.721 1.188a.88.88 0 0 0 .197.022c.432 0 .821-.321.916-.79.02-.102 2.408-10.373 10.853-16.378.432-.306.548-.927.26-1.387-.288-.46-.869-.585-1.3-.277-4.789 3.405-7.738 8.008-9.473 11.656-1.24-4.578-.916-8.377.987-11.305C7.35 3.755 16.23 2.365 21.59 2.071 20.437 3.872 19.177 7.174 19.177 13c0 3.12-.83 5.522-2.465 7.14-2.621 2.591-6.88 2.834-9.994 2.584-.517-.045-.966.371-1.006.922-.04.55.348 1.03.864 1.072a24.34 24.34 0 0 0 1.98.082c3.171 0 6.87-.663 9.43-3.194 2.034-2.011 3.066-4.906 3.066-8.605 0-9.099 3.215-11.096 3.231-11.105.39-.209.595-.677.492-1.129Z"/></svg>